<svg xmlns="http://www.w3.org/2000/svg" width="157.25" height="166.67"><rect id="backgroundrect" width="100%" height="100%" x="0" y="0" fill="none" stroke="none"/><g class="currentLayer" style=""><title>Layer 1</title><g id="Layer_2" data-name="Layer 2" class="selected" fill="#464646" fill-opacity="1"><g id="Locators" fill="#464646" fill-opacity="1"><path d="M.65.23C6.52,3.72,12.42,7.16,18.27,10.7q13.53,8.19,27,16.51a4,4,0,0,0,4,.35,79.22,79.22,0,0,1,58.62-.07,4.39,4.39,0,0,0,4.35-.38Q133,14.42,153.9,1.85c.95-.57,1.93-1.07,3.35-1.85-.33,4.64-.49,8.83-1,13-2.62,23.39-2.83,46.87-2.69,70.38a211.19,211.19,0,0,1-1,24.78c-1.29,11.61-7.73,20.57-16,28.55-12.44,12-27.07,20.19-43.3,25.74-3.06,1-6.13,2.08-9.15,3.22a16,16,0,0,1-11.23,0c-11.82-4.07-23.69-8.12-34.38-14.71a100.82,100.82,0,0,1-24.63-21.38C6.82,121,4,110.89,3.83,100,3.62,85.32,4,70.62,3.51,56S1.74,26.65.79,12C.55,8.2.27,4.39,0,.58ZM108.26,100.48c-3.13,1-9,6.86-9.55,9.82a2.33,2.33,0,0,0,.56,1.76,12.81,12.81,0,0,0,8.62,4.4c13.74.94,18.82-13.84,15.52-23.34-2.71,1-5.4,2.09-8.12,3-1.74.61-2.34,1.66-2.22,3.53a15.53,15.53,0,0,1-2,8.65l-.67,0Q109.32,104.42,108.26,100.48ZM46.2,108.36l-.74,0a20.38,20.38,0,0,1-2.06-9.5A3.1,3.1,0,0,0,42,96.51c-2.45-1.13-5-1.91-7.56-2.91-1.15-.46-1.64-.18-1.86,1a20.78,20.78,0,0,0,2.25,14.62,14,14,0,0,0,22,3.32c.59-.57,1.21-1.83,1-2.41-1.85-4.47-5.33-7.45-9.39-10Z" id="svg_1" fill="#464646" fill-opacity="1"/></g></g></g></svg>