<svg width="490.667" height="490.667" xmlns="http://www.w3.org/2000/svg" xml:space="preserve" version="1.1">

 <g>
  <title>Layer 1</title>
  <path id="svg_1" fill="#5ba8e1" d="m245.333,0c-135.494,0 -245.333,109.839 -245.333,245.333s109.839,245.333 245.333,245.333s245.333,-109.839 245.333,-245.333c-0.152,-135.43 -109.902,-245.18 -245.333,-245.333z"/>
  <path id="svg_2" fill="#FAFAFA" d="m290.133,104.533c-19.139,-18.289 -49.277,-18.289 -68.416,0c-18.893,18.881 -18.902,49.503 -0.021,68.395c0.007,0.007 0.014,0.014 0.021,0.021l19.2,19.2l-123.584,0c-29.455,0 -53.333,23.878 -53.333,53.334c0,29.455 23.878,53.333 53.333,53.333l123.584,0l-19.2,19.2c-17.522,20.175 -15.371,50.734 4.804,68.257c18.259,15.858 45.423,15.799 63.612,-0.139l118.251,-118.251c12.492,-12.496 12.492,-32.752 0,-45.248l-118.251,-118.102z"/>
  <g id="svg_3"/>
  <g id="svg_4"/>
  <g id="svg_5"/>
  <g id="svg_6"/>
  <g id="svg_7"/>
  <g id="svg_8"/>
  <g id="svg_9"/>
  <g id="svg_10"/>
  <g id="svg_11"/>
  <g id="svg_12"/>
  <g id="svg_13"/>
  <g id="svg_14"/>
  <g id="svg_15"/>
  <g id="svg_16"/>
  <g id="svg_17"/>
 </g>
</svg>