<svg id="Layer_1" enable-background="new 0 0 512.369 512.369" height="512" viewBox="0 0 512.369 512.369" width="512" xmlns="http://www.w3.org/2000/svg"><g><path clip-rule="evenodd" d="m347.872 103.449c-5.082-8.802-8.055-17.171-9.317-24.938-127.244-60.878-280.201 36.461-278.462 177.812-.002 108.246 87.751 195.999 195.999 195.999 150.718 1.379 246.563-168.282 168.218-296.596-4.439 2.527-8.482 4.323-11.846 5.224-16.313-4.37-48.589-29.784-64.592-57.501z" fill="#fff69b" fill-rule="evenodd"/><g fill="#020288"><path d="m475.187 123.848c3.943-5.003 7.514-10.176 10.53-15.399 22.055-38.2 8.632-68.059-9.564-82.021-19.055-14.621-44.57-14.606-63.688-.889-16.404-11.772-37.52-13.454-55.222-4.454-167.195-72.953-358.348 52.607-357.15 235.238-2.838 137.596 118.392 258.848 256.001 255.997 198.297.841 322.163-219.325 219.093-388.472zm-93.696-88.543c8.011 0 16.487 2.972 23.901 10.386 3.906 3.904 10.236 3.904 14.143 0 14.577-14.576 33.257-11.979 44.442-3.396 12.342 9.471 19.983 29.195 4.419 56.154-13.839 23.968-41.568 46.4-55.933 51.981-14.364-5.581-42.094-28.014-55.932-51.981-15.565-26.959-7.923-46.684 4.418-56.154 5.498-4.218 12.803-6.99 20.542-6.99zm-125.399 457.017c-130.131 0-236-105.87-236-236.001-2.311-162.321 168.705-280.236 319.474-220.819-12.678 15.943-18.428 41.644-.354 72.947 16.897 29.269 51.244 56.957 70.664 62.161 1.695.455 3.48.455 5.176 0 12.17-3.261 30.202-15.353 46.129-31.13 89.995 154.509-26.063 354.426-205.089 352.842z"/><path d="m376.093 246.321c-5.522 0-10 4.478-10 10-6.051 145.948-213.988 145.871-220.001-.001 0-5.522-4.477-9.999-10-9.999s-10 4.478-10 10c7.149 172.481 252.893 172.395 260.001-.001 0-5.522-4.478-9.999-10-9.999z"/><path d="m194.893 246.042c5.523 0 10-4.478 10-10v-40c-.529-13.268-19.476-13.258-20 0v40c0 5.522 4.477 10 10 10z"/><path d="m314.892 246.042c5.522 0 10-4.478 10-10v-40c-.529-13.268-19.476-13.258-20 0v40c0 5.522 4.477 10 10 10z"/></g></g></svg>